<?xml version="1.0" encoding="UTF-8" standalone="no"?>
<!-- Created with Inkscape (http://www.inkscape.org/) -->

<svg
   xmlns:dc="http://purl.org/dc/elements/1.1/"
   xmlns:cc="http://creativecommons.org/ns#"
   xmlns:rdf="http://www.w3.org/1999/02/22-rdf-syntax-ns#"
   xmlns:svg="http://www.w3.org/2000/svg"
   xmlns="http://www.w3.org/2000/svg"
   xmlns:sodipodi="http://sodipodi.sourceforge.net/DTD/sodipodi-0.dtd"
   xmlns:inkscape="http://www.inkscape.org/namespaces/inkscape"
   width="700mm"
   height="700mm"
   viewBox="0 0 700 700"
   version="1.1"
   id="svg6168"
   inkscape:version="0.92.0 r15299"
   sodipodi:docname="figma-logo.svg"
   inkscape:export-filename="C:\Users\suitedoalex\sites\figma-logo-0.png"
   inkscape:export-xdpi="148.6263"
   inkscape:export-ydpi="148.6263">
  <defs
     id="defs6162">
    <clipPath
       clipPathUnits="userSpaceOnUse"
       id="clipPath89">
      <path
         d="M 204.16666,100 H 362.5 V 341.66666 H 204.16666 Z"
         id="path87"
         inkscape:connector-curvature="0"
         style="clip-rule:evenodd" />
    </clipPath>
  </defs>
  <sodipodi:namedview
     id="base"
     pagecolor="#ffffff"
     bordercolor="#666666"
     borderopacity="1.0"
     inkscape:pageopacity="0.0"
     inkscape:pageshadow="2"
     inkscape:zoom="0.24748737"
     inkscape:cx="1545.1464"
     inkscape:cy="1127.1719"
     inkscape:document-units="mm"
     inkscape:current-layer="layer1"
     showgrid="false"
     inkscape:window-width="1920"
     inkscape:window-height="1017"
     inkscape:window-x="-8"
     inkscape:window-y="-8"
     inkscape:window-maximized="1" />
  <metadata
     id="metadata6165">
    <rdf:RDF>
      <cc:Work
         rdf:about="">
        <dc:format>image/svg+xml</dc:format>
        <dc:type
           rdf:resource="http://purl.org/dc/dcmitype/StillImage" />
        <dc:title></dc:title>
      </cc:Work>
    </rdf:RDF>
  </metadata>
  <g
     inkscape:label="Camada 1"
     inkscape:groupmode="layer"
     id="layer1"
     transform="translate(0,403)">
    <g
       transform="matrix(1.6982175,0,0,1.6982175,-131.16162,-428.02301)"
       id="g83"
       inkscape:export-filename="C:\Users\suitedoalex\sites\figma-logo-4.png"
       inkscape:export-xdpi="37.790874"
       inkscape:export-ydpi="37.790874">
      <g
         id="g85"
         clip-path="url(#clipPath89)">
        <g
           id="g91"
           transform="matrix(4.1661015,0,0,4.2397656,204.1774,100)">
          <path
             d="m 19,28.5 c -2e-6,-0.623779 0.06084,-1.241566 0.182539,-1.853361 0.121691,-0.611792 0.301891,-1.205837 0.540602,-1.782133 0.23871,-0.576296 0.531341,-1.123772 0.877895,-1.642426 0.346552,-0.518652 0.740368,-0.998518 1.181448,-1.439596 0.441078,-0.44108 0.920944,-0.834894 1.439596,-1.181446 0.518652,-0.346556 1.066128,-0.639187 1.642424,-0.877895 0.576296,-0.238711 1.170341,-0.418911 1.782135,-0.540604 C 27.258434,19.060846 27.876221,19 28.5,19 c 0.623777,0 1.241564,0.06085 1.853355,0.182539 0.611792,0.121693 1.205836,0.301893 1.782132,0.540604 0.576297,0.238708 1.123771,0.531339 1.642425,0.877895 0.51865,0.346552 0.998516,0.740366 1.439598,1.181446 0.441078,0.441078 0.834892,0.920944 1.181442,1.439596 0.346554,0.518652 0.639184,1.066128 0.877896,1.642424 0.238712,0.576296 0.418915,1.170341 0.540611,1.782135 C 37.939152,27.258434 37.999996,27.876221 38,28.5 c -4e-6,0.623777 -0.06085,1.241564 -0.182541,1.853355 -0.121696,0.611792 -0.301899,1.205836 -0.540611,1.782132 -0.238712,0.576297 -0.531342,1.123771 -0.877896,1.642425 -0.34655,0.51865 -0.740364,0.998516 -1.181442,1.439598 -0.441082,0.441078 -0.920948,0.834892 -1.439602,1.181442 -0.51865,0.346554 -1.066124,0.639184 -1.642421,0.877896 -0.576296,0.238712 -1.17034,0.418915 -1.782132,0.540611 C 29.741564,37.939152 29.123777,37.999996 28.5,38 27.876221,37.999996 27.258434,37.93915 26.646639,37.817459 26.034847,37.695763 25.440802,37.51556 24.864506,37.276848 24.28821,37.038136 23.740734,36.745506 23.22208,36.398952 22.703428,36.052402 22.223562,35.658588 21.782484,35.21751 21.341404,34.776428 20.947588,34.296562 20.601036,33.777908 20.254482,33.259258 19.961851,32.711784 19.723141,32.135487 19.48443,31.559191 19.30423,30.965147 19.182539,30.353355 19.060844,29.741564 18.999998,29.123777 19,28.5 Z"
             style="fill:#1abcfe;fill-opacity:1;fill-rule:nonzero;stroke:none"
             id="path93"
             inkscape:connector-curvature="0" />
          <path
             d="M 0,47.5 C -7.436023e-8,46.876221 0.06084648,46.258434 0.18253964,45.646641 0.30423281,45.034847 0.48443428,44.440804 0.72314411,43.86451 0.96185392,43.288212 1.2544852,42.740734 1.6010382,42.22208 1.9475913,41.703426 2.3414068,41.22356 2.7824852,40.782486 3.2235637,40.341408 3.7034292,39.94759 4.2220826,39.601036 4.740736,39.254482 5.2882109,38.961853 5.8645072,38.723145 6.4408035,38.484432 7.0348487,38.30423 7.6466417,38.182537 8.2584343,38.060844 8.8762207,38 9.5,38 H 19 v 9.5 c -2e-6,0.623779 -0.06085,1.241566 -0.182541,1.853355 -0.121694,0.61179 -0.301897,1.205834 -0.540607,1.782132 -0.238711,0.576297 -0.531342,1.123771 -0.877894,1.642425 -0.346554,0.51865 -0.74037,0.998516 -1.181446,1.439598 -0.441079,0.441075 -0.920944,0.834892 -1.439597,1.18145 -0.518653,0.34655 -1.066128,0.639179 -1.642425,0.877892 -0.576296,0.238708 -1.170341,0.418911 -1.782134,0.540603 C 10.741564,56.939148 10.123778,56.999996 9.5,57 8.8762207,56.999996 8.2584343,56.939148 7.6466417,56.817455 7.0348487,56.695763 6.4408035,56.51556 5.8645072,56.276852 5.2882109,56.038139 4.740736,55.74551 4.2220826,55.39896 3.7034292,55.052402 3.2235637,54.658585 2.7824855,54.21751 2.3414071,53.776428 1.9475915,53.296562 1.6010386,52.777912 1.2544856,52.259258 0.96185416,51.711784 0.72314435,51.135487 0.48443452,50.559189 0.30423301,49.965145 0.18253981,49.353355 0.0608466,48.741566 0,48.123779 0,47.5 Z"
             style="fill:#0acf83;fill-opacity:1;fill-rule:nonzero;stroke:none"
             id="path95"
             inkscape:connector-curvature="0" />
          <path
             d="m 19,0 v 19 h 9.5 c 0.623777,-2e-6 1.241564,-0.06085 1.853355,-0.182541 0.611792,-0.121694 1.205836,-0.301897 1.782132,-0.540607 0.576297,-0.238711 1.123771,-0.531342 1.642425,-0.877894 0.51865,-0.346554 0.998516,-0.74037 1.439598,-1.181446 0.441078,-0.441079 0.834892,-0.920944 1.181442,-1.439597 0.346554,-0.518653 0.639184,-1.066128 0.877896,-1.642425 0.238712,-0.576296 0.418915,-1.170341 0.540611,-1.782134 C 37.939152,10.741564 37.999996,10.123778 38,9.5 37.999996,8.8762207 37.939152,8.2584343 37.817459,7.6466417 37.695763,7.0348487 37.51556,6.4408035 37.276848,5.8645072 37.038136,5.2882109 36.745506,4.740736 36.398952,4.2220826 36.052402,3.7034292 35.658588,3.2235637 35.21751,2.7824855 34.776428,2.3414071 34.296562,1.9475915 33.777908,1.6010386 33.259258,1.2544856 32.711784,0.96185416 32.135487,0.72314435 31.559191,0.48443452 30.965147,0.30423301 30.353355,0.18253981 29.741564,0.0608466 29.123777,0 28.5,0 Z"
             style="fill:#ff7262;fill-opacity:1;fill-rule:nonzero;stroke:none"
             id="path97"
             inkscape:connector-curvature="0" />
          <path
             d="m 0,9.5 c 0,0.623778 0.0608466,1.241564 0.18253981,1.853356 0.1216932,0.611793 0.30189471,1.205838 0.54060454,1.782134 0.23870981,0.576297 0.53134125,1.123772 0.87789425,1.642425 0.3465529,0.518653 0.7403685,0.998518 1.1814469,1.439597 0.4410782,0.441076 0.9209437,0.834892 1.4395971,1.181446 0.5186534,0.346552 1.0661283,0.639183 1.6424246,0.877894 0.5762963,0.23871 1.1703415,0.418913 1.7821345,0.540607 C 8.2584343,18.939152 8.8762207,18.999998 9.5,19 H 19 V 0 H 9.5 C 8.8762207,-7.436023e-8 8.2584343,0.06084648 7.6466417,0.18253964 7.0348487,0.30423281 6.440804,0.48443428 5.8645077,0.72314411 5.2882113,0.96185392 4.7407365,1.2544852 4.2220831,1.6010382 3.7034297,1.9475913 3.2235641,2.3414068 2.7824857,2.7824852 2.3414073,3.2235637 1.9475918,3.7034292 1.6010387,4.2220826 1.2544856,4.740736 0.96185428,5.2882109 0.72314447,5.8645072 0.4844346,6.4408035 0.30423307,7.0348487 0.18253984,7.6466417 0.06084661,8.2584343 0,8.8762207 0,9.5 Z"
             style="fill:#f24e1e;fill-opacity:1;fill-rule:nonzero;stroke:none"
             id="path99"
             inkscape:connector-curvature="0" />
          <path
             d="m 0,28.5 c 0,0.623777 0.0608466,1.241564 0.18253981,1.853355 0.1216932,0.611792 0.30189471,1.205836 0.54060454,1.782132 0.23870981,0.576297 0.53134125,1.123771 0.87789425,1.642425 0.3465529,0.51865 0.7403685,0.998516 1.1814469,1.439598 0.4410782,0.441078 0.9209437,0.834892 1.4395971,1.181442 0.5186534,0.346554 1.0661283,0.639184 1.6424246,0.877896 0.5762963,0.238712 1.1703415,0.418915 1.7821345,0.540611 C 8.2584343,37.939152 8.8762207,37.999996 9.5,38 H 19 V 19 H 9.5 C 8.8762207,19 8.2584343,19.06085 7.6466417,19.182539 7.0348487,19.304232 6.440804,19.484434 5.8645077,19.723145 5.2882113,19.961855 4.7407365,20.254486 4.2220831,20.60104 3.7034297,20.947592 3.2235641,21.341408 2.7824857,21.782486 2.3414073,22.223564 1.9475918,22.70343 1.6010387,23.222084 1.2544856,23.740738 0.96185428,24.288214 0.72314447,24.86451 0.4844346,25.440805 0.30423307,26.034849 0.18253984,26.646643 0.06084661,27.258434 0,27.876221 0,28.5 Z"
             style="fill:#a259ff;fill-opacity:1;fill-rule:nonzero;stroke:none"
             id="path101"
             inkscape:connector-curvature="0" />
        </g>
      </g>
    </g>
  </g>
</svg>
